<?xml version="1.0" encoding="utf-8"?>
<!-- Generator: Adobe Illustrator 26.5.0, SVG Export Plug-In . SVG Version: 6.00 Build 0)  -->
<svg version="1.1" id="Calque_1" xmlns="http://www.w3.org/2000/svg" xmlns:xlink="http://www.w3.org/1999/xlink" x="0px" y="0px"
	 viewBox="0 0 1920 1080" style="enable-background:new 0 0 1920 1080;" xml:space="preserve">
<style type="text/css">
	.st0{fill-rule:evenodd;clip-rule:evenodd;fill:#5F9ED6;}
</style>
<path class="st0" d="M1920,1063.96V272.82l-69.3-8.27c-26.59-3.17-54.2,4.45-75.5,20.85c-66.52,51.23-208.68,160.69-208.68,160.69
	c-87.18,65.74-115.77,95.54-71.71,174.1l272.08,406.91c24.98,44.5,81.29,66.58,134.7,44.47L1920,1063.96L1920,1063.96z"/>
<path class="st0" d="M-0.94,193.27v877.9l300.56-283.9c46.24-37.46,58.85-103.5,20.39-156L-0.94,193.27L-0.94,193.27z"/>
<path class="st0" d="M254.78,419.48c-48.59,0-87.98-37.83-87.98-84.49c0-46.66,39.39-84.49,87.98-84.49
	c48.59,0,87.98,37.83,87.98,84.49C342.76,381.65,303.37,419.48,254.78,419.48L254.78,419.48z"/>
<path class="st0" d="M1285.99,0H380.29l158.98,237.76c28.7,51.14,93.43,76.52,154.81,51.11L1215.3,73.09
	C1250.67,58.45,1275.71,30.95,1285.99,0L1285.99,0z"/>
</svg>
