<?xml version="1.0" encoding="utf-8"?>
<!-- Generator: Adobe Illustrator 26.5.0, SVG Export Plug-In . SVG Version: 6.00 Build 0)  -->
<svg version="1.1" id="Calque_1" xmlns="http://www.w3.org/2000/svg" xmlns:xlink="http://www.w3.org/1999/xlink" x="0px" y="0px"
	 viewBox="0 0 1700.79 955.58" style="enable-background:new 0 0 1700.79 955.58;" xml:space="preserve">
<style type="text/css">
	.st0{fill-rule:evenodd;clip-rule:evenodd;fill:#5F9ED6;}
</style>
<path class="st0" d="M263.67,1490.21h786.34l-107.06-381.44c-10.49-52.52-58.44-91.68-117.26-85.2l-499.51,55.05
	c-58.82,6.48-101.79,55.18-95.89,108.69L263.67,1490.21L263.67,1490.21z M1700.78,474.93l-406.59,211.61
	c-49.26,21.03-77.77,75.97-59.38,132.22l156.18,477.65c18.39,56.25,74.86,88.33,126.02,71.6l183.77-60.09L1700.78,474.93
	L1700.78,474.93z M1232.84,1022.36c41.13,12.6,64.26,56.16,51.67,97.29c-12.6,41.13-56.16,64.27-97.29,51.67
	c-41.13-12.6-64.27-56.16-51.67-97.29C1148.15,1032.89,1191.71,1009.76,1232.84,1022.36L1232.84,1022.36z M-0.01,22.17V710.3
	l129.56-51.54c91.55-35.34,123.8-54.2,107.71-134.87L116.79,94.66c-9.13-45.7-50.85-79.77-102.02-74.13L-0.01,22.17L-0.01,22.17z
	 M419.31,501.32c-63.51,0-115-51.49-115-115c0-63.51,51.49-115,115-115s115,51.49,115,115
	C534.31,449.83,482.82,501.32,419.31,501.32L419.31,501.32z M1700.78,194.83v-385.25l-186.47-198.53
	c-36.85-39.23-94.75-37.03-146.4-24.64c0,0-176.2,40.04-258.89,58.82c-26.59,6.04-50.26,23.2-64.73,46.91
	C999.09-233.8,902.51-75.52,902.51-75.52c-59.73,95.68-76.35,135.27-5.88,198.29l407.02,311.25c39.94,35.69,101.79,38.2,144.92-2.32
	L1700.78,194.83L1700.78,194.83z M437.26-1047.37c-48.64-22.43-108.51-6.71-137.89,44.66L49.89-566.48
	C20.51-515.11,34.6-451.71,81.32-424.99l395.54,226.21c46.73,26.72,101.44,7.65,147.2-19.31c0,0,156.75-89.88,230.32-132.07
	c23.65-13.56,41.26-36.9,48.15-63.81c21.52-84.05,67.51-263.68,67.51-263.68c29.09-108.98,33.39-151.7-52.45-191.32L437.26-1047.37
	L437.26-1047.37z M1298.1-576.26c-31.62,0-57.25-25.63-57.25-57.25c0-31.62,25.63-57.25,57.25-57.25
	c31.62,0,57.25,25.63,57.25,57.25C1355.35-601.9,1329.72-576.26,1298.1-576.26L1298.1-576.26z M1700.78-930.51v-729.34l-61.36-7.63
	c-23.54-2.93-47.99,4.1-66.85,19.22c-58.9,47.22-184.77,148.14-184.77,148.14c-77.19,60.61-102.51,88.08-63.49,160.5l240.9,375.13
	c22.11,41.02,71.98,61.38,119.26,41L1700.78-930.51L1700.78-930.51z M0-1636.19v809.33l266.11-261.73
	c40.94-34.53,52.11-95.42,18.05-143.81L0-1636.19L0-1636.19z M226.41-1524.65c-43.02,0-77.89-34.88-77.89-77.89
	c0-43.02,34.87-77.9,77.89-77.9c43.02,0,77.9,34.88,77.9,77.9C304.31-1559.53,269.43-1524.65,226.41-1524.65L226.41-1524.65z
	 M1139.43-1911.36H337.53l140.76,219.19c25.42,47.15,82.72,70.54,137.07,47.12l461.48-198.93
	C1108.16-1857.48,1130.33-1882.83,1139.43-1911.36L1139.43-1911.36z"/>
</svg>
