<?xml version="1.0" encoding="utf-8"?>
<!-- Generator: Adobe Illustrator 26.5.0, SVG Export Plug-In . SVG Version: 6.00 Build 0)  -->
<svg version="1.1" id="Calque_1" xmlns="http://www.w3.org/2000/svg" xmlns:xlink="http://www.w3.org/1999/xlink" x="0px" y="0px"
	 viewBox="0 0 1700.79 535.42" style="enable-background:new 0 0 1700.79 535.42;" xml:space="preserve">
<style type="text/css">
	.st0{fill-rule:evenodd;clip-rule:evenodd;fill:#5F9ED6;}
</style>
<path class="st0" d="M263.67,534.64h786.34L942.94,153.19c-10.49-52.52-58.44-91.68-117.26-85.2l-499.51,55.05
	c-58.82,6.48-101.79,55.18-95.89,108.69L263.67,534.64L263.67,534.64z M1700.78-480.65l-406.59,211.61
	c-49.26,21.03-77.77,75.97-59.38,132.22l156.18,477.65c18.39,56.25,74.86,88.33,126.02,71.6l183.77-60.09L1700.78-480.65
	L1700.78-480.65z M1232.84,66.78c41.13,12.6,64.26,56.16,51.67,97.29c-12.6,41.13-56.16,64.27-97.29,51.67
	c-41.13-12.6-64.27-56.16-51.67-97.29C1148.15,77.32,1191.71,54.18,1232.84,66.78L1232.84,66.78z M-0.01-933.41v688.14l129.56-51.54
	c91.55-35.34,123.8-54.2,107.71-134.87L116.79-860.91c-9.13-45.7-50.85-79.77-102.02-74.13L-0.01-933.41L-0.01-933.41z
	 M419.31-454.26c-63.51,0-115-51.49-115-115c0-63.51,51.49-115,115-115s115,51.49,115,115
	C534.31-505.75,482.82-454.26,419.31-454.26L419.31-454.26z M1700.78-760.75V-1146l-186.47-198.53
	c-36.85-39.23-94.75-37.03-146.4-24.64c0,0-176.2,40.04-258.89,58.82c-26.59,6.04-50.26,23.2-64.73,46.91
	c-45.19,74.06-141.77,232.34-141.77,232.34c-59.73,95.68-76.35,135.27-5.88,198.29l407.02,311.25
	c39.94,35.69,101.79,38.2,144.92-2.32L1700.78-760.75L1700.78-760.75z M437.26-2002.94c-48.64-22.43-108.51-6.71-137.89,44.66
	L49.89-1522.06c-29.38,51.37-15.29,114.77,31.43,141.49l395.54,226.21c46.73,26.72,101.44,7.65,147.2-19.31
	c0,0,156.75-89.88,230.32-132.07c23.65-13.56,41.26-36.9,48.15-63.81c21.52-84.05,67.51-263.68,67.51-263.68
	c29.09-108.98,33.39-151.7-52.45-191.32L437.26-2002.94L437.26-2002.94z M1298.1-1531.84c-31.62,0-57.25-25.63-57.25-57.25
	c0-31.62,25.63-57.25,57.25-57.25c31.62,0,57.25,25.63,57.25,57.25C1355.35-1557.47,1329.72-1531.84,1298.1-1531.84L1298.1-1531.84z
	 M1700.78-1886.09v-729.34l-61.36-7.63c-23.54-2.93-47.99,4.1-66.85,19.22c-58.9,47.22-184.77,148.14-184.77,148.14
	c-77.19,60.61-102.51,88.08-63.49,160.5l240.9,375.13c22.11,41.02,71.98,61.38,119.26,41L1700.78-1886.09L1700.78-1886.09z
	 M0-2591.77v809.33l266.11-261.73c40.94-34.53,52.11-95.42,18.05-143.81L0-2591.77L0-2591.77z M226.41-2480.23
	c-43.02,0-77.89-34.88-77.89-77.89c0-43.02,34.87-77.9,77.89-77.9c43.02,0,77.9,34.88,77.9,77.9
	C304.31-2515.1,269.43-2480.23,226.41-2480.23L226.41-2480.23z M1139.43-2866.94H337.53l140.76,219.19
	c25.42,47.15,82.72,70.54,137.07,47.12l461.48-198.93C1108.16-2813.05,1130.33-2838.41,1139.43-2866.94L1139.43-2866.94z"/>
</svg>
