<?xml version="1.0" encoding="utf-8"?>
<!-- Generator: Adobe Illustrator 26.5.0, SVG Export Plug-In . SVG Version: 6.00 Build 0)  -->
<svg version="1.1" id="Calque_1" xmlns="http://www.w3.org/2000/svg" xmlns:xlink="http://www.w3.org/1999/xlink" x="0px" y="0px"
	 viewBox="0 0 512 512" style="enable-background:new 0 0 512 512;" xml:space="preserve">
<style type="text/css">
	
		.st0{fill-rule:evenodd;clip-rule:evenodd;fill:#FFFFFF;stroke:#5F9ED6;stroke-width:5.088;stroke-linecap:round;stroke-linejoin:round;stroke-miterlimit:10;}
	.st1{fill:#D8E7F5;}
	.st2{fill:#387EC1;}
	.st3{fill:#FFFFFF;}
</style>
<path class="st0" d="M97.56,194.75c-17.73,12.26-24.53,36.23-12.74,56.92l103.28,156.2c11.79,20.69,36.64,28.78,55.46,18.06
	l156.17-71.27c18.82-10.72,23.41-33.59,23.43-54.96c0,0,0.93-72.71,1.36-106.84c0.14-10.97-4.34-21.85-12.26-29.74
	c-24.72-24.66-77.56-77.35-77.56-77.35c-31.81-32.38-45.74-42.61-77.03-20.97L97.56,194.75L97.56,194.75z"/>
<polygon class="st1" points="196.95,285.34 179.62,285.34 179.62,190.02 205.62,190.02 205.62,207.35 196.95,207.35 196.95,285.34 
	"/>
<polygon class="st1" points="352.93,285.34 335.6,285.34 335.6,207.35 326.94,207.35 326.94,190.02 352.93,190.02 352.93,285.34 "/>
<polygon class="st1" points="274.94,302.67 257.61,302.67 257.61,250.68 274.94,250.68 274.94,302.67 "/>
<path class="st2" d="M335.6,198.68c0-38.28-31.04-69.33-69.33-69.33c-38.29,0-69.33,31.05-69.33,69.33
	c0,38.29,31.04,69.33,69.33,69.33C304.56,268.01,335.6,236.97,335.6,198.68L335.6,198.68z"/>
<path class="st3" d="M257.61,242.01h-8.67c-14.34,0-26-11.66-26-26c0-4.77-3.89-8.67-8.67-8.67v-17.33c4.78,0,8.67-3.89,8.67-8.67
	c0-14.33,11.66-26,26-26h8.67v17.33h-8.67c-4.78,0-8.67,3.9-8.67,8.67c0,6.65-2.52,12.73-6.64,17.33
	c4.12,4.61,6.64,10.68,6.64,17.33c0,4.77,3.88,8.67,8.67,8.67h8.67V242.01L257.61,242.01z"/>
<path class="st3" d="M283.61,242.01h-8.67v-17.33h8.67c4.77,0,8.67-3.89,8.67-8.67c0-6.65,2.51-12.72,6.63-17.33
	c-4.12-4.6-6.63-10.68-6.63-17.33c0-4.77-3.89-8.67-8.67-8.67h-8.67v-17.33h8.67c14.33,0,26,11.66,26,26c0,4.77,3.88,8.67,8.67,8.67
	v17.33c-4.78,0-8.67,3.9-8.67,8.67C309.6,230.36,297.94,242.01,283.61,242.01L283.61,242.01z"/>
<polygon class="st2" points="292.27,337.33 240.28,337.33 240.28,285.34 292.27,285.34 292.27,337.33 "/>
<polygon class="st2" points="214.28,337.33 162.29,337.33 162.29,285.34 214.28,285.34 214.28,337.33 "/>
<polygon class="st2" points="370.26,337.33 318.27,337.33 318.27,285.34 370.26,285.34 370.26,337.33 "/>
</svg>
