<svg xmlns="http://www.w3.org/2000/svg" xmlns:xlink="http://www.w3.org/1999/xlink" width="1080" zoomAndPan="magnify" viewBox="0 0 810 1439.999935" height="1920" preserveAspectRatio="xMidYMid meet" version="1.0"><defs><clipPath id="f6e4d48dd5"><path d="M 52.410156 294 L 64 294 L 64 347 L 52.410156 347 Z M 52.410156 294 " clip-rule="nonzero"/></clipPath><clipPath id="3038dbecc6"><path d="M 52.410156 393 L 64 393 L 64 503 L 52.410156 503 Z M 52.410156 393 " clip-rule="nonzero"/></clipPath><clipPath id="e4e2c31e51"><path d="M 52.410156 528 L 64 528 L 64 635 L 52.410156 635 Z M 52.410156 528 " clip-rule="nonzero"/></clipPath><clipPath id="f9beb3634d"><path d="M 746 430 L 757.410156 430 L 757.410156 602 L 746 602 Z M 746 430 " clip-rule="nonzero"/></clipPath></defs><path fill="#387ec1" d="M 162.925781 12.519531 C 107.097656 12.519531 62.152344 57.476562 62.152344 113.324219 L 62.152344 1326.632812 C 62.152344 1382.476562 107.097656 1427.4375 162.925781 1427.4375 L 646.84375 1427.4375 C 702.667969 1427.4375 747.617188 1382.480469 747.617188 1326.632812 L 747.617188 113.324219 C 747.617188 57.480469 702.671875 12.519531 646.84375 12.519531 Z M 168.589844 40.207031 L 641.1875 40.207031 C 682.253906 40.207031 715.316406 73.277344 715.316406 114.355469 L 715.316406 1321.140625 C 715.316406 1362.21875 682.253906 1395.289062 641.1875 1395.289062 L 168.589844 1395.289062 C 127.523438 1395.289062 94.464844 1362.21875 94.464844 1321.140625 L 94.464844 114.355469 C 94.464844 73.277344 127.523438 40.207031 168.589844 40.207031 Z M 168.589844 40.207031 " fill-opacity="0.9059" fill-rule="evenodd"/><path stroke-linecap="butt" transform="matrix(2.753906, 0, 0, 2.754707, -323.772258, -8.866393)" fill-opacity="1" fill="#387ec1" fill-rule="nonzero" stroke-linejoin="miter" d="M 214.549945 17.70804 C 216.21803 21.491338 217.074768 36.17785 224.732924 36.926568 L 304.555626 36.926568 C 312.213783 36.17785 313.069102 21.491338 314.738606 17.70804 Z M 214.549945 17.70804 " stroke="#000000" stroke-width="0.265" stroke-opacity="1" stroke-miterlimit="4"/><path fill="#173e45" d="M 317.484375 66.382812 C 317.484375 67.003906 317.421875 67.621094 317.300781 68.230469 C 317.179688 68.839844 317 69.429688 316.761719 70.003906 C 316.527344 70.578125 316.234375 71.121094 315.890625 71.636719 C 315.542969 72.152344 315.152344 72.632812 314.714844 73.070312 C 314.273438 73.511719 313.796875 73.902344 313.28125 74.246094 C 312.765625 74.59375 312.21875 74.882812 311.648438 75.121094 C 311.074219 75.359375 310.480469 75.539062 309.875 75.660156 C 309.265625 75.78125 308.648438 75.839844 308.027344 75.839844 C 307.40625 75.839844 306.792969 75.78125 306.183594 75.660156 C 305.574219 75.539062 304.984375 75.359375 304.410156 75.121094 C 303.835938 74.882812 303.292969 74.59375 302.777344 74.246094 C 302.261719 73.902344 301.78125 73.511719 301.34375 73.070312 C 300.90625 72.632812 300.511719 72.152344 300.167969 71.636719 C 299.824219 71.121094 299.53125 70.578125 299.292969 70.003906 C 299.058594 69.429688 298.878906 68.839844 298.757812 68.230469 C 298.636719 67.621094 298.574219 67.003906 298.574219 66.382812 C 298.574219 65.761719 298.636719 65.148438 298.757812 64.539062 C 298.878906 63.929688 299.058594 63.339844 299.292969 62.765625 C 299.53125 62.191406 299.824219 61.644531 300.167969 61.128906 C 300.511719 60.613281 300.90625 60.136719 301.34375 59.695312 C 301.78125 59.257812 302.261719 58.867188 302.777344 58.519531 C 303.292969 58.175781 303.835938 57.882812 304.410156 57.648438 C 304.984375 57.410156 305.574219 57.230469 306.183594 57.109375 C 306.792969 56.988281 307.40625 56.925781 308.027344 56.925781 C 308.648438 56.925781 309.265625 56.988281 309.875 57.109375 C 310.480469 57.230469 311.074219 57.410156 311.648438 57.648438 C 312.21875 57.882812 312.765625 58.175781 313.28125 58.519531 C 313.796875 58.867188 314.273438 59.257812 314.714844 59.695312 C 315.152344 60.136719 315.542969 60.613281 315.890625 61.128906 C 316.234375 61.644531 316.527344 62.191406 316.761719 62.765625 C 317 63.339844 317.179688 63.929688 317.300781 64.539062 C 317.421875 65.148438 317.484375 65.761719 317.484375 66.382812 Z M 317.484375 66.382812 " fill-opacity="1" fill-rule="nonzero"/><g clip-path="url(#f6e4d48dd5)"><path fill="#387ec1" d="M 52.300781 294.179688 L 63.003906 294.179688 L 63.003906 346.359375 L 52.300781 346.359375 Z M 52.300781 294.179688 " fill-opacity="1" fill-rule="nonzero"/></g><g clip-path="url(#3038dbecc6)"><path fill="#387ec1" d="M 52.300781 393.484375 L 63.003906 393.484375 L 63.003906 502.015625 L 52.300781 502.015625 Z M 52.300781 393.484375 " fill-opacity="1" fill-rule="nonzero"/></g><g clip-path="url(#e4e2c31e51)"><path fill="#387ec1" d="M 52.300781 528.632812 L 63.003906 528.632812 L 63.003906 634.796875 L 52.300781 634.796875 Z M 52.300781 528.632812 " fill-opacity="1" fill-rule="nonzero"/></g><g clip-path="url(#f9beb3634d)"><path fill="#387ec1" d="M 746.726562 430.839844 L 757.425781 430.839844 L 757.425781 601.089844 L 746.726562 601.089844 Z M 746.726562 430.839844 " fill-opacity="1" fill-rule="nonzero"/></g></svg>